<svg width="80" height="80" viewBox="0 0 80 80" fill="none" xmlns="http://www.w3.org/2000/svg">
<g clip-path="url(#clip0_42_3398)">
<path d="M70 76L10 76C8.40929 75.9981 6.88427 75.3653 5.75946 74.2405C4.63466 73.1157 4.00191 71.5907 4 70L4 10C4.00191 8.40929 4.63466 6.88427 5.75946 5.75946C6.88427 4.63466 8.40929 4.0019 10 4L70 4C71.5907 4.0019 73.1157 4.63466 74.2405 5.75946C75.3653 6.88427 75.9981 8.40929 76 10L76 70C75.9981 71.5907 75.3653 73.1157 74.2405 74.2405C73.1157 75.3653 71.5907 75.9981 70 76ZM10 73.6L70 73.6C70.9548 73.6 71.8705 73.2207 72.5456 72.5456C73.2207 71.8705 73.6 70.9548 73.6 70V58L55.6 58C53.691 57.9981 51.8608 57.2389 50.5109 55.8891C49.1611 54.5392 48.4019 52.709 48.4 50.8C48.4 49.527 47.8943 48.3061 46.9941 47.4059C46.0939 46.5057 44.873 46 43.6 46L36.4 46C35.4452 46 34.5295 45.6207 33.8544 44.9456C33.1793 44.2705 32.8 43.3548 32.8 42.4C32.8 42.0817 32.6736 41.7765 32.4485 41.5515C32.2235 41.3264 31.9183 41.2 31.6 41.2L6.4 41.2L6.4 70C6.4 70.9548 6.77928 71.8705 7.45442 72.5456C8.12955 73.2207 9.04522 73.6 10 73.6ZM41.2 20.8V31.6H65.2V20.8H41.2ZM14.8 20.8L14.8 31.6L38.8 31.6V20.8L14.8 20.8ZM50.38 48.4C50.6559 49.1702 50.7979 49.9819 50.8 50.8C50.8 52.073 51.3057 53.2939 52.2059 54.1941C53.1061 55.0943 54.327 55.6 55.6 55.6L65.2 55.6V48.4L50.38 48.4ZM48.952 46H53.2V34H26.8V38.8H31.6C32.5548 38.8 33.4705 39.1793 34.1456 39.8544C34.8207 40.5295 35.2 41.4452 35.2 42.4C35.2 42.7183 35.3264 43.0235 35.5515 43.2485C35.7765 43.4736 36.0817 43.6 36.4 43.6H43.6C44.6108 43.6008 45.61 43.8149 46.5323 44.2285C47.4546 44.6421 48.2791 45.2458 48.952 46ZM24.4 34H6.4L6.4 38.8H24.4V34ZM12.4 31.6L12.4 20.8H6.4L6.4 31.6H12.4ZM67.6 31.6L73.6 31.6V20.8L67.6 20.8V31.6ZM55.6 34V46L73.6 46V34L55.6 34ZM67.6 48.4V55.6H73.6V48.4H67.6ZM6.4 10L6.4 18.4H24.4V6.39999H10C9.04522 6.39999 8.12955 6.77928 7.45442 7.45441C6.77928 8.12955 6.4 9.04522 6.4 10ZM26.8 6.39999V18.4H53.2L53.2 6.39999L26.8 6.39999ZM70 6.39999H55.6L55.6 18.4L73.6 18.4V10C73.6 9.04522 73.2207 8.12955 72.5456 7.45441C71.8705 6.77928 70.9548 6.39999 70 6.39999Z" fill="#005144"/>
<path d="M9.9998 59.2C10.3181 59.2 10.6233 59.3264 10.8483 59.5514C11.0734 59.7765 11.1998 60.0817 11.1998 60.4L11.1998 67.6C11.1998 67.9182 11.3262 68.2234 11.5513 68.4485C11.7763 68.6735 12.0815 68.8 12.3998 68.8H15.9998C16.3181 68.8 16.6233 68.9264 16.8483 69.1514C17.0734 69.3765 17.1998 69.6817 17.1998 70C17.1998 70.3182 17.0734 70.6234 16.8483 70.8485C16.6233 71.0735 16.3181 71.2 15.9998 71.2H12.3998C11.445 71.2 10.5294 70.8207 9.85422 70.1455C9.17909 69.4704 8.7998 68.5547 8.7998 67.6L8.7998 60.4C8.7998 60.0817 8.92623 59.7765 9.15128 59.5514C9.37632 59.3264 9.68154 59.2 9.9998 59.2ZM20.7998 68.8H21.9998C22.3181 68.8 22.6233 68.9264 22.8483 69.1514C23.0734 69.3765 23.1998 69.6817 23.1998 70C23.1998 70.3182 23.0734 70.6234 22.8483 70.8485C22.6233 71.0735 22.3181 71.2 21.9998 71.2H20.7998C20.4815 71.2 20.1763 71.0735 19.9513 70.8485C19.7262 70.6234 19.5998 70.3182 19.5998 70C19.5998 69.6817 19.7262 69.3765 19.9513 69.1514C20.1763 68.9264 20.4815 68.8 20.7998 68.8Z" fill="#D4E2E0"/>
</g>
<defs>
<clipPath id="clip0_42_3398">
<rect width="72" height="72" fill="white" transform="matrix(1 0 0 -1 4 76)"/>
</clipPath>
</defs>
</svg>
