<svg width="72" height="72" viewBox="0 0 72 72" fill="none" xmlns="http://www.w3.org/2000/svg">
<path d="M61.875 5.62491H10.125C9.82663 5.62491 9.54048 5.74344 9.32951 5.95441C9.11853 6.16539 9 6.45154 9 6.74991V56.2499C9 56.5483 9.11853 56.8344 9.32951 57.0454C9.54048 57.2564 9.82663 57.3749 10.125 57.3749H61.875C62.1734 57.3749 62.4595 57.2564 62.6705 57.0454C62.8815 56.8344 63 56.5483 63 56.2499V6.74991C63 6.45154 62.8815 6.16539 62.6705 5.95441C62.4595 5.74344 62.1734 5.62491 61.875 5.62491ZM37.125 7.87491V55.1249H34.875V7.87491H37.125ZM11.25 7.87491H32.625V55.1249H11.25V7.87491ZM60.75 55.1249H39.375V7.87491H60.75V55.1249Z" fill="#005144"/>
<path d="M4.5 2.24991V60.7499C4.5 61.0483 4.61853 61.3344 4.82951 61.5454C5.04048 61.7564 5.32663 61.8749 5.625 61.8749H66.375C66.6734 61.8749 66.9595 61.7564 67.1705 61.5454C67.3815 61.3344 67.5 61.0483 67.5 60.7499V2.24991C67.5 1.95154 67.3815 1.66539 67.1705 1.45441C66.9595 1.24343 66.6734 1.12491 66.375 1.12491H5.625C5.32663 1.12491 5.04048 1.24343 4.82951 1.45441C4.61853 1.66539 4.5 1.95154 4.5 2.24991ZM6.75 3.37491H65.25V59.6249H6.75V3.37491Z" fill="#005144"/>
<path d="M41.9479 30.7057L56.5706 16.0829L58.1625 17.6737L43.5386 32.2964L41.9479 30.7057ZM41.985 45.2778L56.5942 31.7632L58.122 33.4147L43.5128 46.9293L41.985 45.2778ZM13.8263 30.7034L28.449 16.0807L30.0397 17.6714L15.417 32.2942L13.8263 30.7034ZM13.8713 45.2846L28.4805 31.7699L30.0082 33.4214L15.399 46.9361L13.8713 45.2846ZM69.75 64.1249H2.25C1.95163 64.1249 1.66548 64.2435 1.4545 64.4544C1.24353 64.6654 1.125 64.9516 1.125 65.2499V69.7499C1.125 70.0483 1.24353 70.3345 1.4545 70.5454C1.66548 70.7564 1.95163 70.8749 2.25 70.8749H69.75C70.0484 70.8749 70.3345 70.7564 70.5455 70.5454C70.7565 70.3345 70.875 70.0483 70.875 69.7499V65.2499C70.875 64.9516 70.7565 64.6654 70.5455 64.4544C70.3345 64.2435 70.0484 64.1249 69.75 64.1249ZM68.625 68.6249H3.375V66.3749H68.625V68.6249Z" fill="#D4E2E0"/>
</svg>
