<svg width="40" height="40" viewBox="0 0 40 40" fill="none" xmlns="http://www.w3.org/2000/svg">
<g clip-path="url(#clip0_929_121)">
<path fill-rule="evenodd" clip-rule="evenodd" d="M2 11.0003V19.1903C2 19.5603 2.24 19.8003 2.61 19.8003C3.25 19.8003 3.23 19.3003 3.22 18.6503V13.1403C3.22 11.2303 2.98 8.87035 5.68 8.24035V25.1503C5.68 28.6003 5.93 26.2903 3.65 28.0203C3.46 28.1603 3.39 28.2503 3.22 28.3603V22.4003C3.22 21.6903 3.33 21.0203 2.61 21.0203C2.24 21.0203 2 21.2703 2 21.6403V31.6703C2 33.7603 3.98 35.7303 6.07 35.7303H22.88V38.1803C22.88 38.5503 23.12 38.7903 23.49 38.7903H37C37.37 38.7903 37.61 38.5503 37.61 38.1803V35.1203C37.61 34.3003 36.38 34.3003 36.38 35.1203V37.5703H30.24V33.2803C30.24 32.9103 30 32.6703 29.63 32.6703H25.95C25.58 32.6703 25.34 32.9103 25.34 33.2803V37.5703H24.1V29.3003L30.24 26.0903C30.51 26.0903 35.94 29.2003 36.38 29.3003C36.38 30.0703 36.38 30.8303 36.38 31.6003C36.38 32.3903 36.2 33.2803 36.99 33.2803C37.69 33.2803 37.61 32.6703 37.6 31.9803C37.6 31.3203 37.6 30.6503 37.6 29.9903C38.23 30.3203 38.83 30.3103 38.83 29.6103V26.5503C38.83 26.0303 38.34 25.8803 37.99 25.7103C36.23 24.8503 33.78 23.3803 31.95 22.4703C30.31 21.6503 30.6 21.3003 29.06 22.1603L23.59 25.1203C23.18 25.3303 22.87 25.5203 22.49 25.7103C22.13 25.8903 21.65 26.0303 21.65 26.5503V29.6103C21.65 30.3103 22.25 30.3303 22.88 29.9903V34.5103H6.53C5.47 34.5103 4.8 34.1703 4.21 33.6803C3.28 32.9003 2.91 31.2103 3.61 29.9903C4.9 27.7403 6.91 28.9403 6.91 27.7703V7.55035C6.91 5.97035 2 7.46035 2 11.0003ZM22.87 28.5203V26.9103C23.47 26.6003 24.07 26.3003 24.67 25.9503L30.24 23.0103L37.61 26.9103V28.5203L33.06 26.1003C32.71 25.9303 32.49 25.7803 32.17 25.6103C29.33 24.2103 30.92 24.4003 26.54 26.5803L22.87 28.5203ZM26.56 33.8803H29.02V37.5503H26.56V33.8803Z" fill="#0F1C3D"/>
<path fill-rule="evenodd" clip-rule="evenodd" d="M25.0198 4.19028C25.0098 4.67028 24.5698 6.15028 24.4398 6.75028C23.8898 9.29028 23.1598 11.9903 22.5698 14.5203L14.6498 6.66028L18.3798 5.75028C19.9098 5.38028 19.3698 4.35028 18.5098 4.42028C18.1698 4.45028 17.5698 4.64028 17.2598 4.71028L13.4798 5.61028C13.0598 5.71028 12.6798 5.85028 12.7398 6.40028C12.7898 6.80028 13.8898 7.75028 14.2198 8.08028C14.6998 8.56028 17.1298 10.9203 17.3498 11.2403C15.7198 11.2403 9.85978 11.1503 8.74978 11.2403C7.95978 11.3003 7.96978 12.2203 8.48978 12.4203C8.83978 12.5503 16.6798 12.4603 18.1898 12.4603C18.7298 12.4603 18.6598 12.5003 18.9298 12.7903L22.1898 16.0403C23.2198 17.0903 23.5198 16.0603 23.7098 15.1503C23.7698 14.8703 23.8498 14.5503 23.9198 14.2903C24.0398 13.8003 24.3098 12.9603 24.3198 12.4703H29.8498C29.5498 13.0403 27.4098 16.5403 27.2798 17.1103C27.0398 18.1403 26.8798 19.0603 26.6698 20.1003C26.2898 21.9703 27.3698 21.5403 27.6098 21.3403L29.9998 19.1803C30.8098 18.5403 30.8798 18.1303 31.4998 17.0803L34.1498 12.4603H36.3798V23.0203C36.3798 23.3103 36.3098 24.1603 37.0598 24.0803C37.2598 24.0603 37.4998 23.8903 37.5798 23.6803C37.6698 23.4303 37.6198 23.0703 37.6198 22.8003V12.1603C37.6298 10.9803 37.1498 11.2403 34.9298 11.2403C35.0598 10.7603 38.6698 4.98028 38.8098 4.32028C39.2298 2.41028 36.5598 0.750282 35.1598 3.35028C34.9498 3.74028 34.7198 4.12028 34.4798 4.51028L33.4998 6.21028C32.6098 7.65028 33.8298 7.67028 34.1598 7.48028C34.3498 7.37028 35.3598 5.52028 35.5398 5.18028C35.7398 5.31028 36.2998 5.66028 36.5398 5.72028C36.5098 6.07028 35.1098 8.32028 34.8998 8.68028L33.6398 10.8703C33.4898 11.1403 33.3598 11.3203 33.2098 11.5903L30.6898 15.9603C30.3898 16.4603 30.1298 16.9203 29.8598 17.4303C29.6598 17.3003 29.0998 16.9503 28.8598 16.8903C28.8798 16.6103 29.4598 15.7003 29.6198 15.4303L32.1198 11.1203C32.4398 10.5903 33.2998 9.32028 33.1698 8.92028C33.0598 8.59028 32.4598 8.00028 31.8598 9.02028L30.6198 11.2303H24.7098C24.7198 10.8603 26.2998 4.42028 26.4598 3.79028C26.8198 2.35028 25.8998 2.63028 24.9098 2.86028C24.0598 3.05028 23.2998 3.24028 22.4398 3.46028C21.9898 3.57028 21.6598 3.66028 21.2098 3.76028C20.7998 3.86028 20.3898 4.00028 20.4298 4.48028C20.5098 5.46028 21.7698 4.92028 22.5198 4.76028C23.0998 4.62028 24.5498 4.20028 25.0198 4.19028ZM37.2198 4.65028C36.9798 4.59028 36.4198 4.25028 36.2198 4.11028C36.4998 2.91028 37.5998 3.22028 37.5998 3.88028C37.6098 4.07028 37.3198 4.51028 37.2198 4.65028ZM37.2198 4.65028L25.0198 4.19028ZM28.1698 19.1103C28.2498 18.7603 28.3198 18.3803 28.3998 18.0403C28.5898 18.1703 28.7498 18.2803 29.0098 18.3503C28.9498 18.4403 28.2798 19.0403 28.1698 19.1103Z" fill="#0F1C3D"/>
<path fill-rule="evenodd" clip-rule="evenodd" d="M11.21 17.96V20.41C11.21 21.42 12.42 20.87 12.44 20.87C12.44 21.71 12.44 22.55 12.44 23.4C12.44 24.24 12.22 25.31 13.05 25.31H20.42C21.25 25.31 21.03 24.24 21.03 23.4C21.03 22.56 21.03 21.72 21.03 20.87C21.15 20.9 22.26 21.37 22.26 20.41C22.26 16.95 22.76 17.79 19.68 16.25C16.36 14.59 17.13 14.62 15.25 15.56L11.66 17.33C11.39 17.46 11.21 17.61 11.21 17.96ZM12.44 19.42V18.35C12.99 18.22 16.51 16.27 16.75 16.26C17.01 16.24 19.45 17.63 19.94 17.84C20.25 17.97 20.83 18.3 21.04 18.35V19.34C20.62 19.24 19.39 18.56 18.92 18.32C16.3 17.01 16.99 17.14 15.16 18.07L12.44 19.42ZM14.89 22.25V24.09H13.66V20.19C14.14 20.08 16.53 18.72 16.74 18.71C17.02 18.69 19.29 20.06 19.79 20.19V24.09H18.56C18.56 21.19 19.03 21.64 15.49 21.64C15.13 21.64 14.89 21.88 14.89 22.25ZM16.12 22.86H17.35V24.08H16.12V22.86Z" fill="#0F1C3D"/>
<path fill-rule="evenodd" clip-rule="evenodd" d="M8.14 14.2899C8.14 14.6899 8.38 14.8699 8.75 14.8999V25.3099C7.85 25.3799 7.98 26.5299 8.75 26.5299C9.67 26.5299 10.59 26.7199 10.59 25.9199C10.59 25.5199 10.35 25.3399 9.98 25.3099V14.8999C10.88 14.8299 10.75 13.6799 9.98 13.6799C9.06 13.6799 8.14 13.4899 8.14 14.2899Z" fill="#0F1C3D"/>
<path fill-rule="evenodd" clip-rule="evenodd" d="M17.58 7.6302C17.58 8.2202 18.84 9.2302 19.4 9.7902C19.96 10.3502 20.98 11.6102 21.57 11.6102C22.3 11.6102 22.32 10.4502 22.61 9.2802L23.25 6.5602C23.25 6.3202 22.89 5.9502 22.71 5.9502L18.61 6.9002C18.1 7.0202 17.58 7.0402 17.58 7.6302ZM21.18 9.7002L19.47 8.0302L21.71 7.4802C21.7 7.7502 21.28 9.5102 21.18 9.7002Z" fill="#0F1C3D"/>
<path fill-rule="evenodd" clip-rule="evenodd" d="M11.82 27.1497C11.82 28.0697 11.63 28.9897 12.43 28.9897C12.83 28.9897 13.01 28.7497 13.04 28.3797H19.18C19.25 29.2797 20.41 29.1397 20.41 28.3797C20.41 27.4597 20.6 26.5397 19.8 26.5397C19.4 26.5397 19.22 26.7797 19.19 27.1497H13.05C12.98 26.2497 11.82 26.3797 11.82 27.1497Z" fill="#0F1C3D"/>
<path fill-rule="evenodd" clip-rule="evenodd" d="M28.4 28.3698V30.8198C28.4 31.1898 28.64 31.4298 29.01 31.4298H31.47C31.84 31.4298 32.08 31.1898 32.08 30.8198V28.3698C32.08 27.9998 31.84 27.7598 31.47 27.7598H29.01C28.64 27.7598 28.4 27.9998 28.4 28.3698ZM29.63 28.9798H30.86V30.1998H29.63V28.9798Z" fill="#0F1C3D"/>
<path fill-rule="evenodd" clip-rule="evenodd" d="M31.47 33.2702V35.7202C31.47 36.0902 31.71 36.3302 32.08 36.3302H34.54C34.91 36.3302 35.15 36.0902 35.15 35.7202V33.2702C35.15 32.9002 34.91 32.6602 34.54 32.6602H32.08C31.71 32.6602 31.47 32.9002 31.47 33.2702ZM32.7 33.8802H33.93V35.1002H32.7V33.8802Z" fill="#0F1C3D"/>
<path fill-rule="evenodd" clip-rule="evenodd" d="M13.6598 30.2096C13.6598 31.5096 13.4098 32.6596 14.2698 32.6596C14.8298 32.6596 14.8798 32.2896 14.8798 31.7396C15.5398 32.1796 15.4398 32.1796 16.1098 31.7396C16.1098 33.1796 17.3398 32.7196 17.3398 32.0496C17.3398 30.7496 17.5898 29.5996 16.7298 29.5996C16.2398 29.5996 15.8598 30.2796 15.4998 30.5196C15.1498 30.2796 14.7698 29.5996 14.2698 29.5996C13.9098 29.5996 13.6598 29.8396 13.6598 30.2096Z" fill="#0F1C3D"/>
</g>
<defs>
<clipPath id="clip0_929_121">
<rect width="36.85" height="36.78" fill="white" transform="translate(2 2)"/>
</clipPath>
</defs>
</svg>
