<svg width="40" height="40" viewBox="0 0 40 40" fill="none" xmlns="http://www.w3.org/2000/svg">
<path fill-rule="evenodd" clip-rule="evenodd" d="M4.09 4.41078V4.72078H2.16C2.16 5.86078 3.11 13.5908 3.24 15.5608C3.27 16.0608 3.39 16.6508 3.4 17.1108H1V18.3508H18.34V1.01077H17.1V17.1108H15.86V9.68078H13L13.34 6.00077C13.39 5.63077 13.46 5.08077 13.46 4.73077H11.52C11.52 2.60077 9.75 1.01077 8.11 1.01077C7.3 1.01077 6.9 1.00077 6.15 1.37077C5.02 1.92077 4.09 3.20078 4.09 4.41078ZM5.33 4.87077C5.24 4.41077 5.56 3.53078 6.01 3.07078C7.58 1.44078 10.05 2.42078 10.27 4.58078C10.3 4.84078 10.19 5.40077 10.1 5.61077C9.99 5.90077 9.8 6.15077 9.61 6.36077C8.93 7.06077 7.91 7.40077 6.91 7.01077C6.06 6.68077 5.58 5.97077 5.4 5.11077C5.35 4.85077 5.36 5.03077 5.33 4.87077ZM3.55 5.96078H4.32C4.39 6.85078 5.99 8.44078 7.49 8.44078C8.58 8.44078 9.21 8.39077 10.1 7.65077C10.46 7.35077 10.5 7.33077 10.79 6.95077C10.98 6.70077 11.25 6.29078 11.28 5.97078H12.05C12.03 6.77078 11.66 8.99078 11.66 9.69078H8.41V17.1208H4.62C4.62 15.4608 3.84 9.66077 3.69 7.37077C3.68 6.94077 3.56 6.36078 3.55 5.96078ZM9.67 10.9108H14.62V17.1008H9.67V10.9108Z" fill="#0F1C3D"/>
<path fill-rule="evenodd" clip-rule="evenodd" d="M22.0499 18.34H39.3899V17.1H38.1499V9.67H33.1999V2.24001H24.5299V17.1H23.2899V1H22.0499V18.34ZM29.4799 17.1H25.7599V3.48H31.9499V9.67H29.4799V17.1ZM30.7199 10.91H36.9099V17.1H30.7199V10.91Z" fill="#0F1C3D"/>
<path fill-rule="evenodd" clip-rule="evenodd" d="M24.2197 33.2005H28.2397V38.1505H24.5297V39.3905H39.3897V38.1505H35.0597V35.6705H39.0797C38.9597 35.1605 35.8397 27.8305 35.7197 27.6505C35.1897 26.8705 34.0397 26.7705 33.3697 27.4005C32.9597 27.7805 32.7697 28.5105 32.5297 29.0405C32.3697 29.4005 32.3197 29.7105 32.1197 29.8605L30.2897 25.4205C29.6897 24.2205 28.2297 24.2905 27.6197 25.1205C27.3997 25.4205 26.3497 28.0305 26.1397 28.5205L24.7097 31.9705C24.5497 32.3305 24.2997 32.8505 24.2197 33.2005ZM32.8897 31.5805L33.8697 29.1605C33.9897 28.8905 34.1397 28.6105 34.1997 28.3305H34.6597C34.7697 28.8105 37.0997 34.0305 37.1397 34.4405H31.7197C31.7397 34.1805 32.0697 33.4305 32.1797 33.2005H33.4997C33.4197 32.8305 32.8897 31.8105 32.8897 31.5805ZM28.6297 25.8505H29.0897L31.5697 31.9605H26.1497C26.1897 31.5205 28.4997 26.4105 28.6297 25.8505ZM29.7897 35.6805H33.8097V38.1605H29.4797V33.2105H30.7997L29.7897 35.6805Z" fill="#0F1C3D"/>
<path fill-rule="evenodd" clip-rule="evenodd" d="M2.24023 29.1001V30.7301H3.48024V36.9201H14.6302V30.7301H15.8702V29.1001C15.5502 29.0101 13.2602 27.1501 12.8802 26.8301C12.7002 26.6801 10.0102 24.5301 9.84023 24.5301C8.12023 24.5301 8.40023 24.3501 7.51023 25.0601L3.08023 28.5201C2.84023 28.6901 2.45023 29.0401 2.24023 29.1001ZM8.89024 25.7701C9.48024 25.7701 9.43024 25.7601 9.91024 26.1501C10.1302 26.3201 10.3102 26.4601 10.5202 26.6201L13.5602 29.0001C13.7502 29.1601 14.0302 29.3201 14.1502 29.4901H3.94024L6.36023 27.5801C6.79023 27.2601 7.17023 26.9401 7.58023 26.6301C7.97023 26.3201 8.54024 25.7701 8.89024 25.7701ZM5.95023 35.6801H4.71024V30.7301H13.3802V35.6801H12.1402V31.9601H5.95023V35.6801ZM7.19024 33.2001H10.9102V35.6801H7.19024V33.2001Z" fill="#0F1C3D"/>
<path fill-rule="evenodd" clip-rule="evenodd" d="M1 23.2905H17.1V39.3905H18.34V22.0605H1V23.2905Z" fill="#0F1C3D"/>
<path fill-rule="evenodd" clip-rule="evenodd" d="M22.0499 39.3905H23.2899V23.2905H39.3899V22.0605H22.0499V39.3905Z" fill="#0F1C3D"/>
<path fill-rule="evenodd" clip-rule="evenodd" d="M7.1902 4.10036H5.9502V5.34035H7.1902V6.58035H8.43019V5.34035H9.6702V4.10036H8.43019V2.86035H7.1902V4.10036Z" fill="#0F1C3D"/>
<path d="M13.3902 12.1504H10.9102V13.3904H13.3902V12.1504Z" fill="#0F1C3D"/>
<path d="M13.3902 14.6299H10.9102V15.8699H13.3902V14.6299Z" fill="#0F1C3D"/>
<path d="M28.24 4.7207H27V5.96071H28.24V4.7207Z" fill="#0F1C3D"/>
<path d="M30.72 4.7207H29.48V5.96071H30.72V4.7207Z" fill="#0F1C3D"/>
<path d="M28.24 7.2002H27V8.4402H28.24V7.2002Z" fill="#0F1C3D"/>
<path d="M30.72 7.2002H29.48V8.4402H30.72V7.2002Z" fill="#0F1C3D"/>
<path d="M7.1902 9.66992H5.9502V10.9099H7.1902V9.66992Z" fill="#0F1C3D"/>
<path d="M28.24 9.66992H27V10.9099H28.24V9.66992Z" fill="#0F1C3D"/>
<path d="M7.1902 12.1504H5.9502V13.3904H7.1902V12.1504Z" fill="#0F1C3D"/>
<path d="M28.24 12.1504H27V13.3904H28.24V12.1504Z" fill="#0F1C3D"/>
<path d="M33.2 12.1504H31.96V13.3904H33.2V12.1504Z" fill="#0F1C3D"/>
<path d="M35.6697 12.1504H34.4297V13.3904H35.6697V12.1504Z" fill="#0F1C3D"/>
<path d="M7.1902 14.6299H5.9502V15.8699H7.1902V14.6299Z" fill="#0F1C3D"/>
<path d="M28.24 14.6299H27V15.8699H28.24V14.6299Z" fill="#0F1C3D"/>
<path d="M33.2 14.6299H31.96V15.8699H33.2V14.6299Z" fill="#0F1C3D"/>
<path d="M35.6697 14.6299H34.4297V15.8699H35.6697V14.6299Z" fill="#0F1C3D"/>
</svg>
