<svg width="40" height="40" viewBox="0 0 40 40" fill="none" xmlns="http://www.w3.org/2000/svg">
<g clip-path="url(#clip0_929_317)">
<path d="M18.0098 35.7702H22.3998V15.4302C22.3998 14.2202 21.4098 13.2402 20.2098 13.2402C19.0098 13.2402 18.0198 14.2302 18.0198 15.4302V35.7702H18.0098Z" stroke="#9B6754" stroke-width="1.3" stroke-miterlimit="22.9256" stroke-linecap="round" stroke-linejoin="round"/>
<path d="M6.7998 10.9C6.7998 7.64 9.43981 5 12.6998 5C15.9598 5 18.5998 7.64 18.5998 10.9C18.5998 14.16 18.5998 13.95 18.5998 13.95" stroke="#9B6754" stroke-width="1.3" stroke-miterlimit="22.9256" stroke-linecap="round" stroke-linejoin="round"/>
<path d="M33.57 10.9C33.57 7.64 30.93 5 27.67 5C24.41 5 21.77 7.64 21.77 10.9C21.77 14.16 21.77 13.95 21.77 13.95" stroke="#9B6754" stroke-width="1.3" stroke-miterlimit="22.9256" stroke-linecap="round" stroke-linejoin="round"/>
<path d="M28.4902 15.9704H38.6602C38.6602 13.1804 36.3802 10.9004 33.5902 10.9004H33.5702C30.7702 10.9004 28.4902 13.1804 28.4902 15.9704Z" stroke="#9B6754" stroke-width="1.3" stroke-miterlimit="22.9256" stroke-linecap="round" stroke-linejoin="round"/>
<path d="M14.7402 35.7695H25.6602" stroke="#9B6754" stroke-width="1.3" stroke-miterlimit="22.9256" stroke-linecap="round" stroke-linejoin="round"/>
<path d="M36.3301 16.2891C36.3301 17.8091 35.0901 19.0491 33.5701 19.0491C32.0501 19.0491 30.8101 17.8091 30.8101 16.2891" stroke="#9B6754" stroke-width="1.3" stroke-miterlimit="22.9256" stroke-linecap="round" stroke-linejoin="round"/>
<path d="M33.5703 21.9004V24.1604" stroke="#9B6754" stroke-width="1.3" stroke-miterlimit="22.9256" stroke-linecap="round" stroke-linejoin="round"/>
<path d="M29.3803 20.1602L27.7803 21.7602" stroke="#9B6754" stroke-width="1.3" stroke-miterlimit="22.9256" stroke-linecap="round" stroke-linejoin="round"/>
<path d="M37.7598 20.1602L39.3598 21.7602" stroke="#9B6754" stroke-width="1.3" stroke-miterlimit="22.9256" stroke-linecap="round" stroke-linejoin="round"/>
<path d="M1.70996 15.9704H11.88C11.88 13.1804 9.59997 10.9004 6.80997 10.9004H6.77995C3.98995 10.9004 1.70996 13.1804 1.70996 15.9704Z" stroke="#9B6754" stroke-width="1.3" stroke-miterlimit="22.9256" stroke-linecap="round" stroke-linejoin="round"/>
<path d="M9.55028 16.2891C9.55028 17.8091 8.31028 19.0491 6.79028 19.0491C5.27028 19.0491 4.03027 17.8091 4.03027 16.2891" stroke="#9B6754" stroke-width="1.3" stroke-miterlimit="22.9256" stroke-linecap="round" stroke-linejoin="round"/>
<path d="M6.79004 21.9004V24.1604" stroke="#9B6754" stroke-width="1.3" stroke-miterlimit="22.9256" stroke-linecap="round" stroke-linejoin="round"/>
<path d="M2.60001 20.1602L1 21.7602" stroke="#9B6754" stroke-width="1.3" stroke-miterlimit="22.9256" stroke-linecap="round" stroke-linejoin="round"/>
<path d="M10.98 20.1602L12.58 21.7602" stroke="#9B6754" stroke-width="1.3" stroke-miterlimit="22.9256" stroke-linecap="round" stroke-linejoin="round"/>
</g>
<defs>
<clipPath id="clip0_929_317">
<rect width="40" height="40" fill="white"/>
</clipPath>
</defs>
</svg>
