<svg width="72" height="72" viewBox="0 0 72 72" fill="none" xmlns="http://www.w3.org/2000/svg">
<path d="M18.75 2.1522C9.58695 2.1522 2.1195 9.6195 2.1195 18.7826C2.1195 27.9456 9.5544 35.413 18.75 35.413C27.913 35.413 35.3478 27.9456 35.3478 18.7826C35.3478 9.58695 27.8805 2.1522 18.75 2.1522ZM18.75 37.5C8.41305 37.5 0 29.087 0 18.75C0 8.41305 8.41305 0 18.75 0C29.087 0 37.5 8.41305 37.5 18.75C37.4674 29.087 29.0544 37.5 18.75 37.5Z" fill="#1AAE74"/>
<path d="M30.4729 13.5C30.0901 13.5 29.7393 13.3065 29.5479 12.9516C27.4425 9.04845 23.4229 6.62895 19.0527 6.62895C18.4785 6.62895 18 6.14505 18 5.56455C18 4.9839 18.4465 4.5 19.0527 4.5C24.1885 4.5 28.9098 7.33875 31.3662 11.9193C31.6533 12.4354 31.4619 13.0806 30.9515 13.3387C30.8238 13.4677 30.6324 13.5 30.4729 13.5Z" fill="#1AAE74"/>
<path d="M50.3212 37.5C45.3751 37.5 40.6554 35.0944 37.7136 31.0635C37.3581 30.5758 37.455 29.9257 37.9399 29.5681C38.4249 29.2105 39.0714 29.3081 39.427 29.7957C41.9808 33.274 46.054 35.3545 50.3536 35.3545C57.8212 35.3545 63.8988 29.243 63.8988 21.7338C63.8988 14.2245 57.8212 8.11305 50.3536 8.11305C46.7005 8.11305 43.3062 9.5433 40.72 12.144C40.2999 12.5666 39.6532 12.5666 39.2331 12.144C38.8128 11.7213 38.8128 11.0712 39.2331 10.6487C42.2071 7.65795 46.1511 6 50.3536 6C58.9849 6 66 13.0542 66 21.7338C66 30.4458 58.9527 37.5 50.3212 37.5Z" fill="#1AAE74"/>
<path d="M18.75 72C18.3409 72 18 71.5061 18 70.9134V16.0866C18 15.4939 18.3181 15 18.75 15C19.159 15 19.5 15.4939 19.5 16.0866V70.9134C19.4772 71.5061 19.159 72 18.75 72Z" fill="#1AAE74"/>
<path d="M18.495 24C18.2568 24 17.9889 23.9107 17.8101 23.7027L13.7902 19.6579C13.4032 19.2714 13.4032 18.6766 13.7902 18.2899C14.1774 17.9034 14.7729 17.9034 15.1601 18.2899L19.2097 22.3345C19.5967 22.7212 19.5967 23.316 19.2097 23.7027C18.9714 23.9107 18.7332 24 18.495 24Z" fill="#1AAE74"/>
<path d="M18.9867 31.5C18.7124 31.5 18.4686 31.4073 18.2858 31.191C17.8896 30.7893 17.9202 30.1714 18.2858 29.7699L23.8013 24.3012C24.1974 23.8996 24.8373 23.8996 25.2029 24.3012C25.599 24.7029 25.599 25.3516 25.2029 25.7224L19.6875 31.191C19.4742 31.4073 19.2305 31.5 18.9867 31.5Z" fill="#1AAE74"/>
<path d="M6.74985 41.0599C4.1514 41.0599 2.0598 43.1514 2.0598 45.75C2.0598 48.3486 4.1514 50.4401 6.74985 50.4401C9.34845 50.4401 11.4399 48.3486 11.4399 45.75C11.4399 43.1514 9.34845 41.0599 6.74985 41.0599ZM6.74985 52.5C3.0105 52.5 0 49.4577 0 45.75C0 42.0105 3.04215 39 6.74985 39C10.4892 39 13.4997 42.0423 13.4997 45.75C13.5315 49.4577 10.4892 52.5 6.74985 52.5Z" fill="#1AAE74"/>
<path d="M18.4698 58.5C18.2183 58.5 17.9351 58.4046 17.7464 58.2141L7.80679 48.271C7.39774 47.8581 7.39774 47.2227 7.80679 46.8097C8.21569 46.3968 8.84479 46.3968 9.25369 46.8097L19.1933 56.7528C19.6023 57.1657 19.6023 57.8011 19.1933 58.2141C18.9732 58.3729 18.7215 58.5 18.4698 58.5Z" fill="#1AAE74"/>
<path d="M27.9574 58.9591C26.9436 58.9591 26.1259 59.7245 26.1259 60.6735V60.7653C26.1259 61.7144 26.9436 62.4796 27.9574 62.4796H63.5097C64.5237 62.4796 65.3414 61.7144 65.3414 60.7653V60.6735C65.3414 59.7245 64.5237 58.9591 63.5097 58.9591M63.5097 64.5H27.9574C25.7661 64.5 24 62.847 24 60.7959V60.7041C24 58.653 25.7661 57 27.9574 57H63.5097C65.7011 57 67.5 58.653 67.5 60.7041V60.7959C67.5 62.847 65.7011 64.5 63.5097 64.5Z" fill="#1AAE74"/>
<path d="M30.75 58.5C30.3409 58.5 30 57.9768 30 57.3489V43.1511C30 42.5232 30.3409 42 30.75 42C31.159 42 31.5 42.4884 31.5 43.1511V57.3489C31.5 58.0116 31.159 58.5 30.75 58.5Z" fill="#1AAE74"/>
<path d="M60.75 58.5C60.3409 58.5 60 57.9768 60 57.3489V43.1511C60 42.5232 60.3409 42 60.75 42C61.159 42 61.5 42.4884 61.5 43.1511V57.3489C61.5 58.0116 61.1818 58.5 60.75 58.5Z" fill="#1AAE74"/>
<path d="M64.923 48H26.577C25.9895 48 25.5 47.6769 25.5 47.2616C25.5 46.8462 25.9895 46.5 26.577 46.5H64.923C65.5106 46.5 66 46.8231 66 47.2616C66 47.6769 65.5106 48 64.923 48Z" fill="#1AAE74"/>
<path d="M64.923 54H26.577C25.9895 54 25.5 53.659 25.5 53.25C25.5 52.8409 25.9895 52.5 26.577 52.5H64.923C65.5106 52.5 66 52.8181 66 53.25C66 53.659 65.5106 54 64.923 54Z" fill="#1AAE74"/>
<path d="M30 64.5H28.5V72H30V64.5Z" fill="#1AAE74"/>
<path d="M63 64.5H61.5V72H63V64.5Z" fill="#1AAE74"/>
<path d="M50.25 42C49.8409 42 49.5 41.5176 49.5 40.9387V22.0613C49.5 21.4824 49.8409 21 50.25 21C50.659 21 51 21.4503 51 22.0613V40.9387C51 41.5176 50.659 42 50.25 42Z" fill="#1AAE74"/>
<path d="M50.4752 28.5C50.237 28.5 49.9987 28.4112 49.7902 28.2336C49.4032 27.849 49.4032 27.2571 49.7902 26.8723L53.8399 22.7886C54.2271 22.4038 54.8226 22.4038 55.2097 22.7886C55.5967 23.1732 55.5967 23.7651 55.2097 24.1498L51.1897 28.2336C50.9814 28.4112 50.7432 28.5 50.4752 28.5Z" fill="#1AAE74"/>
<path d="M49.9996 33C49.7866 33 49.5738 32.9403 49.3912 32.8211L43.8856 28.7649C43.4598 28.4369 43.3684 27.8405 43.7031 27.3932C44.0377 26.9457 44.646 26.886 45.1023 27.1844L50.6079 31.2404C51.0337 31.5684 51.1251 32.165 50.8209 32.6123C50.6079 32.8509 50.3038 33 49.9996 33Z" fill="#1AAE74"/>
<path d="M58.958 16.5C58.6053 16.5 58.2846 16.3536 58.0923 16.0902C56.3931 13.8074 53.5717 12.4317 50.5579 12.4317C49.9809 12.4317 49.5 11.9926 49.5 11.4658C49.5 10.939 49.9809 10.5 50.5579 10.5C54.277 10.5 57.7397 12.1975 59.8236 15.0073C60.1442 15.4464 60.0159 16.0317 59.535 16.3244C59.3427 16.4708 59.1503 16.5 58.958 16.5Z" fill="#1AAE74"/>
<path d="M70.9035 72H1.0965C0.49845 72 0 71.659 0 71.25C0 70.8409 0.49845 70.5 1.0965 70.5H70.9035C71.5015 70.5 72 70.8409 72 71.25C72 71.659 71.5015 72 70.9035 72Z" fill="#1AAE74"/>
</svg>
