<svg width="80" height="80" viewBox="0 0 80 80" fill="none" xmlns="http://www.w3.org/2000/svg">
<path d="M73.2309 5.38458H48.7405C47.9759 5.38458 47.3559 6.00447 47.3559 6.7692V73.2307C47.3559 73.9953 47.9759 74.6153 48.7405 74.6153H73.2309C73.9955 74.6153 74.6155 73.9953 74.6155 73.2307V6.7692C74.6155 6.00447 73.9955 5.38458 73.2309 5.38458ZM71.8463 71.8461H50.1251V8.15381H71.8463V71.8461ZM42.7694 5.38458H40.0001C39.2354 5.38458 38.6155 6.00447 38.6155 6.7692C38.6155 7.53392 39.2354 8.15381 40.0001 8.15381H42.7694C43.534 8.15381 44.154 7.53392 44.154 6.7692C44.154 6.00447 43.534 5.38458 42.7694 5.38458ZM34.4617 5.38458H31.6925C30.9277 5.38458 30.3078 6.00447 30.3078 6.7692C30.3078 7.53392 30.9277 8.15381 31.6925 8.15381H34.4617C35.2264 8.15381 35.8463 7.53392 35.8463 6.7692C35.8463 6.00447 35.2264 5.38458 34.4617 5.38458ZM26.154 5.38458H23.3848C22.62 5.38458 22.0002 6.00447 22.0002 6.7692C22.0002 7.53392 22.62 8.15381 23.3848 8.15381H26.154C26.9187 8.15381 27.5386 7.53392 27.5386 6.7692C27.5386 6.00447 26.9187 5.38458 26.154 5.38458ZM15.0771 8.15381H17.8463C18.611 8.15381 19.2309 7.53392 19.2309 6.7692C19.2309 6.00447 18.611 5.38458 17.8463 5.38458H15.0771C14.3124 5.38458 13.6925 6.00447 13.6925 6.7692C13.6925 7.53392 14.3124 8.15381 15.0771 8.15381ZM6.76938 8.15381H9.53861C10.3033 8.15381 10.9232 7.53392 10.9232 6.7692C10.9232 6.00447 10.3033 5.38458 9.53861 5.38458H6.76938C6.00466 5.38458 5.38477 6.00447 5.38477 6.7692C5.38477 7.53392 6.00466 8.15381 6.76938 8.15381ZM42.7694 71.8461H40.0001C39.2354 71.8461 38.6155 72.4661 38.6155 73.2307C38.6155 73.9953 39.2354 74.6153 40.0001 74.6153H42.7694C43.534 74.6153 44.154 73.9953 44.154 73.2307C44.154 72.4661 43.534 71.8461 42.7694 71.8461ZM34.4617 71.8461H31.6925C30.9277 71.8461 30.3078 72.4661 30.3078 73.2307C30.3078 73.9953 30.9277 74.6153 31.6925 74.6153H34.4617C35.2264 74.6153 35.8463 73.9953 35.8463 73.2307C35.8463 72.4661 35.2264 71.8461 34.4617 71.8461ZM26.154 71.8461H23.3848C22.62 71.8461 22.0002 72.4661 22.0002 73.2307C22.0002 73.9953 22.62 74.6153 23.3848 74.6153H26.154C26.9187 74.6153 27.5386 73.9953 27.5386 73.2307C27.5386 72.4661 26.9187 71.8461 26.154 71.8461ZM17.8463 71.8461H15.0771C14.3124 71.8461 13.6925 72.4661 13.6925 73.2307C13.6925 73.9953 14.3124 74.6153 15.0771 74.6153H17.8463C18.611 74.6153 19.2309 73.9953 19.2309 73.2307C19.2309 72.4661 18.611 71.8461 17.8463 71.8461ZM9.53861 71.8461H6.76938C6.00466 71.8461 5.38477 72.4661 5.38477 73.2307C5.38477 73.9953 6.00466 74.6153 6.76938 74.6153H9.53861C10.3033 74.6153 10.9232 73.9953 10.9232 73.2307C10.9232 72.4661 10.3033 71.8461 9.53861 71.8461ZM33.0771 45.798C33.8418 45.798 34.4617 45.1782 34.4617 44.4134V15.6504L37.6365 18.8252C38.177 19.3657 39.0539 19.3659 39.5947 18.8252C40.1356 18.2845 40.1354 17.4078 39.5947 16.8669C33.7089 10.9822 33.9738 11.2002 33.6647 11.0553C33.4905 10.9733 33.3011 10.9286 33.1086 10.924C32.9161 10.9194 32.7248 10.9551 32.5469 11.0287C32.2074 11.1692 32.4813 10.9495 26.5596 16.8671C26.0189 17.4078 26.0189 18.2845 26.5596 18.8253C27.1002 19.3662 27.977 19.366 28.5178 18.8253L31.6925 15.6504V44.4134C31.6925 45.1782 32.3124 45.798 33.0771 45.798ZM39.5946 61.1747C39.0539 60.6342 38.1772 60.6342 37.6363 61.1747L34.4617 64.3494V43.4615C34.4617 42.6969 33.8418 42.0769 33.0771 42.0769C32.3124 42.0769 31.6925 42.6969 31.6925 43.4615V64.3494L28.5177 61.1746C27.977 60.6341 27.1002 60.6341 26.5594 61.1746C26.0187 61.7153 26.0187 62.592 26.5594 63.1329C32.4234 68.9956 32.18 68.7997 32.4874 68.9436C32.6716 69.031 32.8731 69.0764 33.0771 69.0764C33.2811 69.0764 33.4825 69.031 33.6668 68.9436C34.0017 68.7868 33.7363 68.9742 39.5947 63.1329C40.1354 62.5922 40.1354 61.7154 39.5946 61.1747Z" fill="#005144"/>
<path d="M22.2213 52.2698C21.7738 51.9878 21.2773 51.847 20.7343 51.847C20.0439 51.847 19.4848 52.0148 19.0681 52.3615C18.7152 52.6409 18.4503 53.0117 18.2716 53.4703C18.1033 53.0565 17.858 52.7185 17.5343 52.4595L17.5333 52.4588C17.1287 52.143 16.6327 51.9876 16.0515 51.9876C15.5453 51.9876 15.0857 52.1241 14.6753 52.3974C14.2543 52.6621 13.9242 53.0524 13.6832 53.5631C13.4311 54.0774 13.3077 54.712 13.3077 55.4626C13.3077 56.2041 13.4265 56.838 13.6685 57.3609C13.9101 57.8826 14.2504 58.2829 14.6908 58.5569L14.6922 58.5577C15.132 58.8216 15.6473 58.9517 16.2343 58.9517H16.3343V58.8517V57.1642V57.0642H16.2343C15.8362 57.0642 15.5382 56.9372 15.3262 56.6917C15.1137 56.4363 14.9983 56.033 14.9983 55.4626C14.9983 54.8804 15.11 54.4833 15.3118 54.248L15.3129 54.2467C15.5139 54.0038 15.8193 53.8751 16.2483 53.8751C16.6756 53.8751 16.992 54.0075 17.2128 54.2618C17.4256 54.5177 17.5405 54.9121 17.5405 55.4626V56.447V56.547H17.6405H19.0468H19.1468V56.447V55.4626C19.1468 54.8165 19.2859 54.3805 19.5394 54.1271L19.5406 54.1259C19.7895 53.8683 20.1362 53.7345 20.5937 53.7345C21.038 53.7345 21.3737 53.8798 21.6141 54.163C21.8456 54.4374 21.9702 54.8644 21.9702 55.4626C21.9702 56.0795 21.8456 56.5151 21.6152 56.7891C21.3754 57.0537 21.0395 57.1907 20.5937 57.1907H20.4937V57.2907V58.9782V59.0782H20.5937C21.1911 59.0782 21.725 58.9383 22.1922 58.656L22.193 58.6555C22.6514 58.3727 23.0104 57.9639 23.2709 57.4332L23.2712 57.4326C23.5326 56.8906 23.6608 56.2327 23.6608 55.4626C23.6608 54.684 23.5375 54.0261 23.2856 53.4933L23.2853 53.4926C23.0252 52.9532 22.6711 52.5438 22.2213 52.2698ZM22.2213 52.2698C22.2215 52.2699 22.2218 52.2701 22.222 52.2702L22.1687 52.3548M22.2213 52.2698C22.2211 52.2696 22.2209 52.2695 22.2206 52.2694L22.1687 52.3548M22.1687 52.3548C22.5999 52.6173 22.9421 53.0111 23.1952 53.5361M22.1687 52.3548C21.7374 52.0829 21.2593 51.947 20.7343 51.947C20.0593 51.947 19.5249 52.1111 19.1312 52.4392C18.767 52.7271 18.4984 53.1184 18.3255 53.6129L23.1952 53.5361M23.1952 53.5361C23.439 54.0517 23.5608 54.6939 23.5608 55.4626C23.5608 56.222 23.4343 56.8642 23.1812 57.3892C22.928 57.9048 22.5812 58.2986 22.1405 58.5704L23.1952 53.5361ZM25.5609 50.0086L25.6858 50.0409V49.9118V49.068V49.0164L25.6437 48.9865L23.464 47.4396L23.438 47.4211H23.4062H21.6343H21.5343V47.5211V49.3493V49.4493H21.6343H23.3935L25.5609 50.0086ZM23.4062 45.3069H23.5062V45.2069L23.5062 38.035V37.935H23.4062H21.9437H21.8437V38.035L21.8437 42.5773L19.9833 40.2937C19.9831 40.2934 19.9829 40.2932 19.9827 40.2929C19.6426 39.8584 19.297 39.4795 18.9458 39.1568C18.5833 38.8229 18.2051 38.5593 17.8109 38.367L17.8101 38.3666C17.4028 38.1726 16.9709 38.0756 16.5155 38.0756C15.9011 38.0756 15.35 38.2054 14.8649 38.4673C14.378 38.7302 13.9988 39.1197 13.7276 39.6326C13.4458 40.1384 13.3077 40.7559 13.3077 41.4803C13.3077 42.2246 13.4556 42.8743 13.7555 43.4259C14.0456 43.9769 14.4621 44.4078 15.0034 44.7171L15.0039 44.7174C15.5369 45.0179 16.1591 45.1663 16.8671 45.1663H16.9671V45.0663V43.3788V43.2788H16.8671C16.2161 43.2788 15.755 43.1183 15.4623 42.8169L15.4622 42.8169C15.1569 42.5028 14.9983 42.0618 14.9983 41.4803C14.9983 40.9949 15.1414 40.6301 15.4167 40.372L15.4179 40.3709C15.6965 40.101 16.0593 39.9631 16.5155 39.9631C16.7629 39.9631 16.9963 40.016 17.2168 40.1217C17.4302 40.2285 17.6657 40.3997 17.9234 40.6389C18.1736 40.88 18.476 41.2009 18.8309 41.6024C18.831 41.6025 18.8311 41.6026 18.8312 41.6028L22.0087 45.2723L22.0386 45.3069H22.0843H23.4062ZM23.4062 31.8794H23.5062V31.7794V30.2325V30.1325H23.4062H18.9765C18.6306 30.1325 18.33 30.0779 18.0725 29.9714L18.0714 29.9709C17.8055 29.8645 17.6067 29.7117 17.4695 29.5145L17.469 29.5138C17.3241 29.3091 17.2483 29.0493 17.2483 28.7278C17.2483 28.3306 17.3794 28.0271 17.6357 27.805L17.6357 27.805L17.6384 27.8026C17.8817 27.576 18.318 27.4497 18.9765 27.4497H23.4062H23.5062V27.3497V25.8028V25.7028H23.4062H18.9765C18.6306 25.7028 18.33 25.6482 18.0725 25.5417L18.0714 25.5412C17.8055 25.4348 17.6067 25.282 17.4695 25.0848L17.4695 25.0848L17.469 25.0841C17.3241 24.8795 17.2483 24.6196 17.2483 24.2981C17.2483 23.9009 17.3794 23.5974 17.6357 23.3753L17.6357 23.3753L17.6384 23.3729C17.8817 23.1463 18.318 23.02 18.9765 23.02L23.4062 23.02H23.5062V22.92V21.3731V21.2731L23.4062 21.2731L18.6249 21.2731C17.6475 21.2731 16.9054 21.4863 16.4198 21.9323C15.9349 22.3776 15.6983 23.0073 15.6983 23.806C15.6983 24.3395 15.8345 24.8138 16.1089 25.2255L16.1089 25.2255L16.1095 25.2264C16.3401 25.5641 16.6303 25.8391 16.9792 26.0509C16.6322 26.1969 16.3427 26.4225 16.1123 26.7269C15.8322 27.0971 15.6983 27.604 15.6983 28.2356C15.6983 28.7438 15.8454 29.1964 16.1402 29.5894C16.3419 29.8583 16.5704 30.0772 16.8258 30.245H15.953H15.853V30.345V31.7794V31.8794H15.953H23.4062Z" fill="#D4E2E0" stroke="#D4E2E0" stroke-width="0.2"/>
</svg>
