<svg width="198" height="57" viewBox="0 0 198 57" fill="none" xmlns="http://www.w3.org/2000/svg">
<path d="M35.8187 0.762196C35.6175 0.762196 35.5321 0.855241 35.4365 0.99917C31.8788 6.37979 28.3181 11.759 24.7574 17.1381C24.384 17.7022 24.0077 18.2634 23.614 18.8537C23.5199 18.7228 23.4489 18.6283 23.3824 18.5309C19.5033 12.7069 15.6227 6.88282 11.7508 1.05442C11.6047 0.834888 11.4527 0.76365 11.1979 0.76365C7.59528 0.770919 3.99263 0.769465 0.38854 0.769465H0.00352477C0.00352477 1.05005 -0.00805465 1.30011 0.0107619 1.54726C0.0165516 1.62286 0.088923 1.72899 0.158399 1.75807C1.57543 2.36141 2.31217 3.50412 2.70008 4.93759C3.06483 6.28239 3.13431 7.65916 3.13576 9.03594C3.14589 19.1677 3.14155 29.298 3.14155 39.4297V39.9007H10.9388V13.4323C10.9663 13.4251 10.9938 13.4178 11.0199 13.4105C11.1328 13.5806 11.2471 13.7478 11.3586 13.9194C14.5516 18.794 17.7461 23.6673 20.9333 28.5478C21.0853 28.7789 21.246 28.8589 21.5166 28.8545C22.4994 28.8386 23.4822 28.84 24.465 28.8545C24.7126 28.8575 24.8602 28.7819 24.9977 28.5725C26.0254 27.0096 27.0646 25.4555 28.0995 23.8999C30.3662 20.495 32.6314 17.0916 34.8981 13.6882C34.9632 13.5893 35.0414 13.4992 35.1123 13.4047C35.1369 13.4178 35.1615 13.4294 35.1847 13.4425V39.9007H42.94V0.781096C42.8546 0.775281 42.7909 0.768011 42.7287 0.768011C40.4244 0.768011 38.1215 0.770919 35.8172 0.760742L35.8187 0.762196Z" fill="white"/>
<path d="M80.1046 13.6878C80.2586 13.7619 80.3435 13.8549 80.4226 13.9522C87.3982 22.5174 94.3738 31.0827 101.345 39.6508C101.49 39.8295 101.633 39.9022 101.862 39.9007C103.89 39.892 105.921 39.8964 107.949 39.8949C108.065 39.8949 108.18 39.8833 108.299 39.876V0.791254H100.839V26.4375C100.685 26.2588 100.593 26.1586 100.506 26.054C99.6429 24.9991 98.7796 23.9443 97.9163 22.8894C91.9364 15.5955 85.955 8.30163 79.9809 1.00339C79.8341 0.82322 79.6888 0.760742 79.4629 0.760742C76.283 0.768007 73.1031 0.766554 69.9232 0.766554H69.5391V1.695C71.1161 2.34738 71.8427 3.57804 72.2168 5.0281C72.6038 6.52756 72.6312 8.06044 72.6341 9.58751C72.6513 19.5258 72.6427 29.4641 72.6441 39.4024C72.6441 39.5607 72.6585 39.7191 72.6657 39.8789H80.1046V13.6878Z" fill="white"/>
<path d="M155.807 13.046C153.891 7.64832 150.325 3.72257 144.959 1.52687C140.892 -0.136853 136.637 -0.366083 132.353 0.477311C126.075 1.71285 121.623 5.36034 118.765 10.944C117.267 13.8721 116.725 17.0367 116.656 20.3093C116.77 21.529 116.835 22.7544 117.004 23.9655C117.519 27.6418 118.974 30.9188 121.385 33.7704C123.765 36.5846 126.679 38.6318 130.24 39.7333C132.869 40.5479 135.565 40.7742 138.306 40.6099C140.489 40.4801 142.62 40.1038 144.656 39.308C149.95 37.2392 153.482 33.4446 155.54 28.2704C156.739 25.2558 157.068 22.0985 156.892 18.8763C156.783 16.8838 156.475 14.9275 155.807 13.0446V13.046ZM148.116 26.1929C147.027 29.3069 145.113 31.7996 142.135 33.3869C140.104 34.4682 137.909 34.771 135.628 34.5691C132.968 34.3341 130.72 33.237 128.854 31.3743C126.88 29.4035 125.625 27.0406 125.031 24.3345C124.926 23.8588 124.825 23.3787 124.776 22.8943C124.687 22.0422 124.64 21.1873 124.575 20.3338C124.612 17.7734 125.02 15.2922 126.167 12.9783C127.529 10.2304 129.508 8.07794 132.425 6.88277C133.59 6.40413 134.811 6.16769 136.069 6.10137C139.508 5.91972 142.496 6.93612 144.93 9.38556C146.832 11.3001 148.044 13.5953 148.604 16.2134C149.323 19.5784 149.255 22.926 148.113 26.1929H148.116Z" fill="white"/>
<path d="M197.494 39.6566C195.685 36.6724 193.912 33.6634 192.048 30.7126C190.77 28.6873 189.396 26.72 188.005 24.7688C187.018 23.3856 185.869 22.1318 184.461 21.045C184.677 20.9404 184.833 20.8649 184.987 20.7893C187.287 19.6546 188.999 17.9533 189.994 15.5792C190.708 13.8793 190.799 12.1054 190.584 10.2979C190.201 7.07833 188.66 4.57935 185.911 2.83732C183.518 1.3205 180.843 0.798909 178.064 0.780021C172.925 0.743699 167.788 0.769851 162.65 0.769851H162.27C162.27 1.00231 162.286 1.19991 162.265 1.39169C162.242 1.6227 162.328 1.73312 162.546 1.81884C163.129 2.04695 163.613 2.41889 164.011 2.90125C164.688 3.72214 165.037 4.69848 165.146 5.72423C165.299 7.16696 165.411 8.62131 165.414 10.0713C165.436 19.8551 165.426 29.6389 165.426 39.4227V39.8629H173.259V23.3261C173.627 23.3261 173.965 23.3319 174.302 23.3261C176.136 23.2868 177.678 23.9392 178.963 25.2424C180.378 26.6779 181.584 28.2805 182.67 29.9644C184.728 33.1549 186.738 36.3775 188.76 39.5913C188.897 39.8092 189.039 39.9022 189.306 39.9007C191.952 39.8906 194.597 39.8949 197.244 39.8949H197.602C197.552 39.7874 197.529 39.7177 197.491 39.6552L197.494 39.6566ZM182.341 14.3385C181.709 16.1342 180.326 17.1353 178.557 17.6249C177.816 17.8298 177.029 17.9126 176.257 17.9547C175.275 18.0099 174.286 17.9678 173.264 17.9678V6.62067C173.324 6.60614 173.375 6.58434 173.426 6.58434C174.72 6.60469 176.017 6.57853 177.308 6.66425C178.518 6.74562 179.639 7.16405 180.63 7.88178C181.531 8.53413 182.147 9.38698 182.441 10.4636C182.796 11.7639 182.79 13.0672 182.343 14.337L182.341 14.3385Z" fill="white"/>
<path d="M54.024 39.9006H61.558V1.14062H50.9226C50.9226 1.39998 50.9085 1.63916 50.9296 1.87401C50.9366 1.95614 51.0152 2.06997 51.0882 2.10022C52.4164 2.64486 53.1493 3.69667 53.541 5.05971C53.9707 6.55674 54.0128 8.09987 54.0156 9.63581C54.0324 19.5574 54.024 29.479 54.024 39.4007V39.9006Z" fill="white"/>
<path d="M137.651 11.2722C137.441 10.9433 137.231 10.6159 137.004 10.2607C136.935 10.3481 136.884 10.4019 136.845 10.463C134.954 13.4276 133.066 16.3951 131.169 19.3568C131.051 19.5416 131.093 19.661 131.196 19.824C133.072 22.7595 134.944 25.6979 136.817 28.6362C136.867 28.7148 136.925 28.7876 136.991 28.8807C137.053 28.7934 137.099 28.7337 137.139 28.6712C139.023 25.7153 140.906 22.7565 142.798 19.8065C142.925 19.6086 142.887 19.4834 142.778 19.3117C141.066 16.6338 139.358 13.953 137.651 11.2737V11.2722Z" fill="white"/>
<path d="M64.0995 49.5679C63.7118 49.3373 63.2663 49.222 62.7616 49.222C62.3354 49.222 61.9462 49.3243 61.5942 49.5276C61.3467 49.6702 61.146 49.8821 60.9686 50.1257V47.1191H60.0391V54.6572H60.9301V53.7693C61.1088 54.0302 61.3151 54.2565 61.575 54.4093C61.927 54.6154 62.323 54.7191 62.7616 54.7191C63.2649 54.7191 63.7118 54.6038 64.0995 54.3732C64.4873 54.1426 64.7939 53.8212 65.0194 53.4076C65.2449 52.9939 65.3591 52.5139 65.3591 51.9648C65.3591 51.4157 65.2463 50.9372 65.0194 50.5278C64.7939 50.1185 64.4859 49.7985 64.0995 49.5679ZM64.1917 52.9665C64.0404 53.2548 63.8328 53.4767 63.5715 53.6324C63.3103 53.7881 63.0146 53.8659 62.6846 53.8659C62.3546 53.8659 62.07 53.7881 61.8074 53.6324C61.5461 53.4767 61.3385 53.2548 61.1872 52.9665C61.036 52.6783 60.959 52.3453 60.959 51.9662C60.959 51.5872 61.0346 51.247 61.1872 50.966C61.3385 50.6849 61.5461 50.4659 61.8074 50.3102C62.0686 50.1545 62.3615 50.0767 62.6846 50.0767C63.0078 50.0767 63.3103 50.1545 63.5715 50.3102C63.8328 50.4659 64.0404 50.6849 64.1917 50.966C64.3429 51.247 64.4199 51.58 64.4199 51.9662C64.4199 52.3525 64.3443 52.6797 64.1917 52.9665Z" fill="white"/>
<path d="M68.9235 53.8102L66.9922 49.4009H65.9473L68.3899 54.9048L68.2136 55.2933C68.0742 55.6124 67.9245 55.8339 67.7645 55.9595C67.6044 56.085 67.4013 56.1471 67.1582 56.1471C66.97 56.1471 66.7921 56.1116 66.6261 56.0422C66.4586 55.9728 66.306 55.8723 66.1666 55.7409L65.7383 56.4898C65.9191 56.6567 66.1355 56.7823 66.386 56.8694C66.6365 56.9566 66.8944 56.9994 67.1582 56.9994C67.4443 56.9994 67.7052 56.9521 67.9423 56.8591C68.1795 56.7645 68.3974 56.608 68.596 56.3849C68.7946 56.1633 68.9739 55.8576 69.134 55.4691L71.8183 49.3994H70.8356L68.9221 53.8087L68.9235 53.8102Z" fill="white"/>
<path d="M75.2383 48.7308H77.7591V54.7209H78.799V48.7308H81.3183V47.8809H75.2383V48.7308Z" fill="white"/>
<path d="M87.9713 47.8809H86.8178L84.7643 50.5043L82.6958 47.8809H81.4898L84.1013 51.2156L81.3203 54.7209H82.5368L84.7268 51.9019L86.9453 54.7209H88.1603L85.3628 51.1837L87.9713 47.8809Z" fill="white"/>
<path d="M88.1562 48.7308H90.6771V54.7209H91.7169V48.7308H94.2363V47.8809H88.1562V48.7308Z" fill="white"/>
<path d="M99.8295 49.2528C100.08 48.9983 100.377 48.7995 100.722 48.658C101.066 48.5164 101.439 48.4457 101.84 48.4457C102.242 48.4457 102.602 48.5149 102.939 48.652C103.277 48.7905 103.59 49.0073 103.877 49.304L104.499 48.6459C104.177 48.2635 103.787 47.9774 103.325 47.7861C102.864 47.5949 102.354 47.5 101.799 47.5C101.244 47.5 100.749 47.5949 100.295 47.7816C99.8394 47.9683 99.4438 48.2349 99.1065 48.5767C98.7692 48.92 98.5059 49.3221 98.3194 49.7814C98.1316 50.2421 98.0391 50.7466 98.0391 51.2992C98.0391 51.8519 98.133 52.3563 98.3194 52.8171C98.5059 53.2779 98.7678 53.6785 99.1022 54.0218C99.4367 54.3651 99.8309 54.6302 100.286 54.8184C100.74 55.0051 101.24 55.1 101.781 55.1C102.276 55.1 102.756 55.0202 103.22 54.8606C103.684 54.7009 104.091 54.466 104.438 54.1543V51.2571H103.476V53.6649C103.294 53.7914 103.107 53.8983 102.909 53.9691C102.565 54.0926 102.205 54.1543 101.831 54.1543C101.429 54.1543 101.058 54.0836 100.718 53.942C100.376 53.8005 100.081 53.6002 99.8295 53.3427C99.579 53.0852 99.384 52.7795 99.2474 52.4301C99.1093 52.0793 99.041 51.7028 99.041 51.2992C99.041 50.8957 99.1093 50.5087 99.2474 50.1578C99.384 49.807 99.579 49.5058 99.8295 49.2498V49.2528Z" fill="white"/>
<path d="M111.314 52.3558C111.77 52.1673 112.121 51.8956 112.368 51.5393C112.613 51.1844 112.737 50.7588 112.737 50.2639C112.737 49.769 112.615 49.342 112.368 48.9844C112.121 48.6267 111.77 48.3522 111.314 48.1637C110.856 47.9751 110.304 47.8809 109.658 47.8809H106.781V54.7209H107.835V52.64H109.658C109.821 52.64 109.962 52.6165 110.113 52.604L111.713 54.7209H112.861L111.1 52.4168C111.167 52.3946 111.248 52.3836 111.312 52.3572L111.314 52.3558ZM109.627 51.8082H107.835V48.7307H109.627C110.301 48.7307 110.813 48.8637 111.16 49.1313C111.508 49.3989 111.681 49.7759 111.681 50.2653C111.681 50.7547 111.508 51.1331 111.16 51.4034C110.811 51.6738 110.301 51.8082 109.627 51.8082Z" fill="white"/>
<path d="M120.522 48.5769C120.179 48.2335 119.777 47.9684 119.316 47.7816C118.857 47.5949 118.354 47.5 117.809 47.5C117.265 47.5 116.75 47.5964 116.288 47.7862C115.824 47.9774 115.423 48.244 115.082 48.5874C114.742 48.9308 114.477 49.333 114.285 49.7924C114.094 50.2517 114 50.7548 114 51.3C114 51.8452 114.096 52.3468 114.285 52.8076C114.475 53.2685 114.742 53.6692 115.082 54.0126C115.423 54.356 115.826 54.6226 116.292 54.8138C116.759 55.0051 117.265 55.1 117.809 55.1C118.354 55.1 118.857 55.0066 119.316 54.8184C119.776 54.6301 120.177 54.365 120.522 54.0216C120.865 53.6782 121.131 53.2761 121.319 52.8167C121.506 52.3573 121.6 51.8512 121.6 51.2985C121.6 50.7457 121.506 50.2412 121.319 49.7803C121.132 49.3194 120.865 48.9188 120.522 48.5754V48.5769ZM120.368 52.4356C120.228 52.782 120.035 53.0848 119.786 53.3438C119.537 53.6029 119.244 53.8017 118.908 53.9433C118.57 54.0849 118.205 54.1556 117.809 54.1556C117.414 54.1556 117.039 54.0849 116.701 53.9433C116.363 53.8017 116.069 53.6014 115.817 53.3438C115.565 53.0863 115.369 52.7836 115.23 52.4356C115.091 52.0892 115.02 51.7112 115.02 51.3C115.02 50.8888 115.09 50.5108 115.23 50.1644C115.369 49.818 115.565 49.5152 115.817 49.2562C116.069 48.9986 116.363 48.7983 116.701 48.6567C117.039 48.5151 117.407 48.4444 117.809 48.4444C118.212 48.4444 118.57 48.5151 118.908 48.6567C119.245 48.7983 119.538 48.9986 119.786 49.2562C120.034 49.5152 120.228 49.8164 120.368 50.1644C120.507 50.5108 120.577 50.8903 120.577 51.3C120.577 51.7097 120.507 52.0892 120.368 52.4356Z" fill="white"/>
<path d="M128.583 51.8989C128.583 52.6947 128.407 53.2749 128.055 53.6424C127.702 54.0099 127.201 54.1937 126.549 54.1937C125.898 54.1937 125.409 54.0099 125.056 53.6424C124.703 53.2749 124.527 52.6947 124.527 51.8989V47.8809H123.5V51.9394C123.5 52.9725 123.77 53.7581 124.312 54.2949C124.852 54.8317 125.595 55.1009 126.541 55.1009C127.486 55.1009 128.237 54.8317 128.774 54.2949C129.312 53.7581 129.58 52.9725 129.58 51.9394V47.8809H128.583V51.8989Z" fill="white"/>
<path d="M136.486 48.1637C136.021 47.9751 135.457 47.8809 134.796 47.8809H131.859V54.7209H132.936V52.6497H134.796C135.456 52.6497 136.019 52.5541 136.486 52.3614C136.952 52.1687 137.31 51.8956 137.562 51.5407C137.813 51.1858 137.939 50.7602 137.939 50.2653C137.939 49.7704 137.814 49.3434 137.562 48.9857C137.31 48.6281 136.952 48.3536 136.486 48.165V48.1637ZM136.33 51.3979C135.975 51.6655 135.453 51.7985 134.764 51.7985H132.936V48.7307H134.764C135.453 48.7307 135.975 48.8637 136.33 49.1313C136.686 49.3989 136.863 49.7759 136.863 50.2653C136.863 50.7547 136.686 51.1317 136.33 51.3993V51.3979Z" fill="white"/>
</svg>
